# xmcd
#
# Track frame offsets: 
#        183
#        14255
#        28603
#        41495
#        55893
#        75580
#        94945
#        113690
#        127250
#        143780
#
# Disc length: 2182 seconds
#
# Revision: 7
# Processed by: cddbd v1.5.2PL0 Copyright (c) Steve Scherf et al.
# Submitted via: ExactAudioCopy v0.95b4
#
DISCID=7f08840a
DTITLE=Emmylou Harris - Quarter Moon In A Ten Cent Town
DYEAR=1978
DGENRE=Country
TTITLE0=Easy From Now On
TTITLE1=Two More Bottles Of Wine
TTITLE2=To Daddy
TTITLE3=My Songbird
TTITLE4=Leaving Louisiana In The Broad Daylight
TTITLE5=Defying Gravity
TTITLE6=I Ain't Living Long Like This
TTITLE7=One Paper Kid
TTITLE8=Green Rolling Hills
TTITLE9=Burn That Candle
EXTD=(c)1978 Warner Bros USA\n7599-27345-2Produced by Brian Ahern for 
EXTD=Happy Sack Productions\nEngineered by Brian Ahern, Bradley Hartma
EXTD=n and Donivan Cowart\nRecorded and mixed in The Enactron Truck\n197
EXTD=8
EXTT0=
EXTT1=Supporting vocal Dianne Brooks
EXTT2=
EXTT3=
EXTT4=Supporting vocal by Rick Danko
EXTT5=Supporting vocal by Nicolette Larson
EXTT6=Supporting vocal Dianne Brooks
EXTT7=
EXTT8=
EXTT9=Supporting vocal Dianne Brooks and Nicolette Larson
PLAYORDER=
